<?xml version="1.0" encoding="UTF-8"?>
<svg id="Layer_1" data-name="Layer 1" xmlns="http://www.w3.org/2000/svg" viewBox="0 0 620 615">
  <path d="M448.61,443.6c39.6-9.63,75.93-29.95,105.49-59.5,42.5-42.5,65.9-99,65.9-159.1s-23.4-116.61-65.9-159.1C512.78,24.58,458.23,1.33,400,.06V0H0v615h100s50,0,50,0v-265h240c1.67,0,3.34-.03,5-.1,66.62-2.63,120-57.65,120-124.9s-50.73-119.49-115-124.6v-.4H100s0,0,0,0v150h50.25v-50h-.25v-50h240c41.36,0,75,33.64,75,75s-33.64,75-75,75H100v265h-50V50h345c96.5,0,175,78.5,175,175s-73.27,169.66-165.26,174.73c-1.57.09-3.15.15-4.74.19-1.66.06-3.33.08-5,.08h-50.83l50,50,114.99,115h-78.68l-109.99-110-5-5-50-50h-80.36v50h59.64l5,5,110.01,110,50,50h210.22l-50-50-121.39-121.4Z"/>
</svg>
